<?xml version="1.0" encoding="utf-8"?>
<COLLADA xmlns="http://www.collada.org/2005/11/COLLADASchema" version="1.4.1" xmlns:xsi="http://www.w3.org/2001/XMLSchema-instance">
  <asset>
    <contributor>
      <author>Blender User</author>
      <authoring_tool>Blender 4.4.3 commit date:2025-04-29, commit time:14:09, hash:802179c51ccc</authoring_tool>
    </contributor>
    <created>2025-09-06T15:30:15</created>
    <modified>2025-09-06T15:30:15</modified>
    <unit name="meter" meter="1"/>
    <up_axis>Z_UP</up_axis>
  </asset>
  <library_effects>
    <effect id="Body-effect">
      <profile_COMMON>
        <newparam sid="TextureCaissesNoisettesPouries_png-surface">
          <surface type="2D">
            <init_from>TextureCaissesNoisettesPouries_png</init_from>
          </surface>
        </newparam>
        <newparam sid="TextureCaissesNoisettesPouries_png-sampler">
          <sampler2D>
            <source>TextureCaissesNoisettesPouries_png-surface</source>
          </sampler2D>
        </newparam>
        <technique sid="common">
          <lambert>
            <emission>
              <color sid="emission">0 0 0 1</color>
            </emission>
            <diffuse>
              <texture texture="TextureCaissesNoisettesPouries_png-sampler" texcoord="UVMap"/>
            </diffuse>
            <index_of_refraction>
              <float sid="ior">1.5</float>
            </index_of_refraction>
          </lambert>
        </technique>
      </profile_COMMON>
    </effect>
  </library_effects>
  <library_images>
    <image id="TextureCaissesNoisettesPouries_png" name="TextureCaissesNoisettesPouries_png">
      <init_from>TextureCaissesNoisettesPouries.png</init_from>
    </image>
  </library_images>
  <library_materials>
    <material id="Body-material" name="Body">
      <instance_effect url="#Body-effect"/>
    </material>
  </library_materials>
  <library_geometries>
    <geometry id="Body-mesh" name="Body">
      <mesh>
        <source id="Body-mesh-positions">
          <float_array id="Body-mesh-positions-array" count="24">-0.02499997 -0.01499998 0 0.02499997 -0.01499998 0 -0.02499997 -0.01499998 0.15 0.02499997 -0.01499998 0.15 0.02499997 0.01499998 0 0.02499997 0.01499998 0.15 -0.02499997 0.01499998 0 -0.02499997 0.01499998 0.15</float_array>
          <technique_common>
            <accessor source="#Body-mesh-positions-array" count="8" stride="3">
              <param name="X" type="float"/>
              <param name="Y" type="float"/>
              <param name="Z" type="float"/>
            </accessor>
          </technique_common>
        </source>
        <source id="Body-mesh-normals">
          <float_array id="Body-mesh-normals-array" count="18">0 -1 0 1 0 0 0 1 0 -1 0 0 0 0 -1 0 0 1</float_array>
          <technique_common>
            <accessor source="#Body-mesh-normals-array" count="6" stride="3">
              <param name="X" type="float"/>
              <param name="Y" type="float"/>
              <param name="Z" type="float"/>
            </accessor>
          </technique_common>
        </source>
        <source id="Body-mesh-map-0">
          <float_array id="Body-mesh-map-0-array" count="72">1.000894 0.6858268 1.000894 1.001853 -8.94189e-4 0.6858266 -8.94189e-4 0.6858266 1.000894 1.001853 -8.94189e-4 1.001853 1.000894 0.09870314 1.000894 0.1838644 -8.94129e-4 0.09870314 -8.94129e-4 0.09870314 1.000894 0.1838644 -8.94129e-4 0.1863581 1.000894 0.1838644 1.000894 0.5017434 -8.94129e-4 0.1863581 -8.94129e-4 0.1863581 1.000894 0.5017434 -8.94189e-4 0.5017432 1.000894 0.009234547 1.000894 0.1801848 -8.9407e-4 0.009234428 -8.9407e-4 0.009234428 1.000894 0.1801848 -8.94129e-4 0.1801847 0.2460958 0.6663423 0.5136335 0.5144259 0.5136335 0.6663423 0.2460958 0.5144259 0.5136335 0.5144259 0.2460958 0.6663423 0.5136335 0.5144259 0.7811712 0.6663423 0.5136335 0.6663423 0.5136335 0.5144259 0.7811712 0.5144259 0.7811712 0.6663423</float_array>
          <technique_common>
            <accessor source="#Body-mesh-map-0-array" count="36" stride="2">
              <param name="S" type="float"/>
              <param name="T" type="float"/>
            </accessor>
          </technique_common>
        </source>
        <vertices id="Body-mesh-vertices">
          <input semantic="POSITION" source="#Body-mesh-positions"/>
        </vertices>
        <triangles material="Body-material" count="12">
          <input semantic="VERTEX" source="#Body-mesh-vertices" offset="0"/>
          <input semantic="NORMAL" source="#Body-mesh-normals" offset="1"/>
          <input semantic="TEXCOORD" source="#Body-mesh-map-0" offset="2" set="0"/>
          <p>0 0 0 1 0 1 2 0 2 2 0 3 1 0 4 3 0 5 1 1 6 4 1 7 3 1 8 3 1 9 4 1 10 5 1 11 4 2 12 6 2 13 5 2 14 5 2 15 6 2 16 7 2 17 6 3 18 0 3 19 7 3 20 7 3 21 0 3 22 2 3 23 0 4 24 4 4 25 1 4 26 6 4 27 4 4 28 0 4 29 5 5 30 2 5 31 3 5 32 5 5 33 7 5 34 2 5 35</p>
        </triangles>
      </mesh>
    </geometry>
  </library_geometries>
  <library_visual_scenes>
    <visual_scene id="Scene" name="Scene">
      <node id="node0" name="node0" type="NODE">
        <matrix sid="transform">1 0 0 0 0 1 0 0 0 0 1 0 0 0 0 1</matrix>
        <instance_geometry url="#Body-mesh" name="node0">
          <bind_material>
            <technique_common>
              <instance_material symbol="Body-material" target="#Body-material">
                <bind_vertex_input semantic="UVMap" input_semantic="TEXCOORD" input_set="0"/>
              </instance_material>
            </technique_common>
          </bind_material>
        </instance_geometry>
      </node>
    </visual_scene>
  </library_visual_scenes>
  <scene>
    <instance_visual_scene url="#Scene"/>
  </scene>
</COLLADA>